<?xml version="1.0" encoding="utf-8"?>
<!-- Generator: Adobe Illustrator 19.2.1, SVG Export Plug-In . SVG Version: 6.00 Build 0)  -->
<svg version="1.1" id="Слой_1" xmlns="http://www.w3.org/2000/svg" xmlns:xlink="http://www.w3.org/1999/xlink" x="0px" y="0px"
	 viewBox="0 0 154.7 221.9" style="enable-background:new 0 0 154.7 221.9;" xml:space="preserve">
<style type="text/css">
	.st0{fill:#DDDDDD;}
	.st1{fill:#24AAFF;}
	.st2{fill:#FFFFFF;}
	.st3{fill:#FF9F06;}
	.st4{fill:#CCCCCC;}
</style>
<g>
	<g>
		<polygon class="st0" points="62.8,126.1 59.2,85.8 39.8,85.8 36.2,126.1 30,126.1 30,146.5 69,146.5 69,126.1 		"/>
	</g>
	<g>
		<polygon class="st0" points="124.3,126.1 120.6,85.8 101.3,85.8 97.6,126.1 91.4,126.1 91.4,146.5 130.5,146.5 130.5,126.1 		"/>
	</g>
	<g>
		<path class="st1" d="M146.6,221.9h-135c-1.9,0-3.5-1.6-3.5-3.5v-69.5c0-1.9,1.6-3.5,3.5-3.5h135c1.9,0,3.5,1.6,3.5,3.5v69.5
			C150.1,220.4,148.5,221.9,146.6,221.9z M15.1,214.9h128v-62.5h-128V214.9z"/>
	</g>
	<g>
		<g>
			<path class="st1" d="M56,181.8H30c-1.9,0-3.5-1.6-3.5-3.5V161c0-1.9,1.6-3.5,3.5-3.5H56c1.9,0,3.5,1.6,3.5,3.5v17.4
				C59.5,180.3,57.9,181.8,56,181.8z M33.5,174.8h19.1v-10.4H33.5V174.8z"/>
		</g>
		<g>
			<path class="st1" d="M92.1,181.8H66c-1.9,0-3.5-1.6-3.5-3.5V161c0-1.9,1.6-3.5,3.5-3.5h26.1c1.9,0,3.5,1.6,3.5,3.5v17.4
				C95.6,180.3,94,181.8,92.1,181.8z M69.5,174.8h19.1v-10.4H69.5V174.8z"/>
		</g>
		<g>
			<path class="st1" d="M128.2,181.8h-26.1c-1.9,0-3.5-1.6-3.5-3.5V161c0-1.9,1.6-3.5,3.5-3.5h26.1c1.9,0,3.5,1.6,3.5,3.5v17.4
				C131.7,180.3,130.1,181.8,128.2,181.8z M105.6,174.8h19.1v-10.4h-19.1V174.8z"/>
		</g>
		<g>
			<path class="st1" d="M56,209.9H30c-1.9,0-3.5-1.6-3.5-3.5V189c0-1.9,1.6-3.5,3.5-3.5H56c1.9,0,3.5,1.6,3.5,3.5v17.4
				C59.5,208.3,57.9,209.9,56,209.9z M33.5,202.9h19.1v-10.4H33.5V202.9z"/>
		</g>
		<g>
			<path class="st1" d="M92.1,209.9H66c-1.9,0-3.5-1.6-3.5-3.5V189c0-1.9,1.6-3.5,3.5-3.5h26.1c1.9,0,3.5,1.6,3.5,3.5v17.4
				C95.6,208.3,94,209.9,92.1,209.9z M69.5,202.9h19.1v-10.4H69.5V202.9z"/>
		</g>
		<g>
			<path class="st1" d="M128.2,209.9h-26.1c-1.9,0-3.5-1.6-3.5-3.5V189c0-1.9,1.6-3.5,3.5-3.5h26.1c1.9,0,3.5,1.6,3.5,3.5v17.4
				C131.7,208.3,130.1,209.9,128.2,209.9z M105.6,202.9h19.1v-10.4h-19.1V202.9z"/>
		</g>
	</g>
	<g>
		<path class="st3" d="M119.1,78.3c-11.8,0-21.9-8.5-24.2-19.8c-2.7,0.5-5.4,0.5-8.1-0.1c-2,6.9-8.4,11.8-15.7,11.8
			c-3.2,0-6.3-0.9-8.9-2.6C57.4,74,49.8,77.9,41.7,77.9c-14.1,0-25.5-11.4-25.5-25.5s11.4-25.5,25.5-25.5c8.9,0,17.2,4.7,21.8,12.3
			c1.8-0.9,3.7-1.5,5.7-1.8c0-0.2,0-0.3,0-0.5C69.2,24.8,79,15,91,15c9.5,0,17.9,6.2,20.8,15c2.4-0.7,4.8-1.1,7.3-1.1
			c13.6,0,24.7,11.1,24.7,24.7S132.7,78.3,119.1,78.3z M97,52.8c0.5,0,1,0.1,1.4,0.4c0.6,0.4,1,1.1,1.1,1.9
			c0.8,10.2,9.4,18.1,19.6,18.1c10.8,0,19.7-8.8,19.7-19.7S129.9,34,119.1,34c-2.8,0-5.5,0.6-8,1.7c-0.7,0.3-1.5,0.3-2.2-0.1
			c-0.7-0.4-1.2-1-1.3-1.8C106.1,25.8,99.2,20,91,20c-9.3,0-16.9,7.6-16.9,16.9c0,0.8,0.1,1.6,0.2,2.6c0.1,0.7-0.1,1.5-0.6,2.1
			s-1.2,0.8-2,0.8l-0.3,0c-0.1,0-0.3,0-0.4,0c-2.6,0-5,0.8-7,2.4c-0.6,0.5-1.4,0.6-2.1,0.5c-0.7-0.2-1.4-0.7-1.7-1.4
			c-3.3-7.2-10.6-11.9-18.6-11.9c-11.3,0-20.5,9.2-20.5,20.5s9.2,20.5,20.5,20.5c7.3,0,14.1-3.9,17.7-10.3c0.4-0.7,1-1.1,1.8-1.2
			c0.8-0.1,1.5,0.1,2.1,0.6c2.1,2,4.9,3.1,7.8,3.1c5.8,0,10.7-4.4,11.3-10.1c0.1-0.7,0.5-1.4,1.1-1.8c0.6-0.4,1.4-0.5,2.1-0.3
			c3.4,1.1,7.1,1.2,10.5,0C96.5,52.9,96.8,52.8,97,52.8z"/>
	</g>
	<g>
		<path class="st3" d="M121.2,26.8c-7.4,0-13.4-6-13.4-13.4S113.8,0,121.2,0s13.4,6,13.4,13.4S128.6,26.8,121.2,26.8z M121.2,5
			c-4.6,0-8.4,3.8-8.4,8.4s3.8,8.4,8.4,8.4s8.4-3.8,8.4-8.4S125.9,5,121.2,5z"/>
	</g>
	<g>
		<path class="st3" d="M142.6,93.9c-6.7,0-12.1-5.4-12.1-12.1s5.4-12.1,12.1-12.1s12.1,5.4,12.1,12.1S149.3,93.9,142.6,93.9z
			 M142.6,74.7c-3.9,0-7.1,3.2-7.1,7.1s3.2,7.1,7.1,7.1s7.1-3.2,7.1-7.1S146.5,74.7,142.6,74.7z"/>
	</g>
	<g>
		<path class="st3" d="M11.5,87.9C5.2,87.9,0,82.7,0,76.3s5.2-11.5,11.5-11.5S23,70,23,76.3S17.9,87.9,11.5,87.9z M11.5,69.8
			c-3.6,0-6.5,2.9-6.5,6.5c0,3.6,2.9,6.5,6.5,6.5c3.6,0,6.5-2.9,6.5-6.5C18,72.7,15.1,69.8,11.5,69.8z"/>
	</g>
</g>
</svg>
