<?xml version="1.0" encoding="utf-8"?>
<!-- Generator: Adobe Illustrator 19.2.1, SVG Export Plug-In . SVG Version: 6.00 Build 0)  -->
<svg version="1.1" id="Слой_1" xmlns="http://www.w3.org/2000/svg" xmlns:xlink="http://www.w3.org/1999/xlink" x="0px" y="0px"
	 viewBox="0 0 308.2 240.9" style="enable-background:new 0 0 308.2 240.9;" xml:space="preserve">
<style type="text/css">
	.st0{fill:#DDDDDD;}
	.st1{fill:#24AAFF;}
	.st2{fill:#FFFFFF;}
	.st3{fill:#FF9F06;}
	.st4{fill:#CCCCCC;}
</style>
<g>
	<g>
		<path class="st3" d="M82.4,172.7H62c-1.4,0-2.5-1.1-2.5-2.5v-50.8c0-1.4,1.1-2.5,2.5-2.5h20.4c1.4,0,2.5,1.1,2.5,2.5v50.8
			C84.9,171.6,83.8,172.7,82.4,172.7z M64.5,167.7h15.4v-45.8H64.5V167.7z"/>
	</g>
	<g>
		<g>
			<path class="st4" d="M5,11H1c-0.6,0-1-0.4-1-1s0.4-1,1-1h4c0.6,0,1,0.4,1,1S5.6,11,5,11z"/>
		</g>
		<g>
			<path class="st4" d="M294.9,11h-8.1c-0.6,0-1-0.4-1-1s0.4-1,1-1h8.1c0.6,0,1,0.4,1,1S295.5,11,294.9,11z M278.8,11h-8.1
				c-0.6,0-1-0.4-1-1s0.4-1,1-1h8.1c0.6,0,1,0.4,1,1S279.4,11,278.8,11z M262.7,11h-8.1c-0.6,0-1-0.4-1-1s0.4-1,1-1h8.1
				c0.6,0,1,0.4,1,1S263.3,11,262.7,11z M246.6,11h-8.1c-0.6,0-1-0.4-1-1s0.4-1,1-1h8.1c0.6,0,1,0.4,1,1S247.2,11,246.6,11z
				 M230.5,11h-8.1c-0.6,0-1-0.4-1-1s0.4-1,1-1h8.1c0.6,0,1,0.4,1,1S231.1,11,230.5,11z M214.4,11h-8.1c-0.6,0-1-0.4-1-1s0.4-1,1-1
				h8.1c0.6,0,1,0.4,1,1S215,11,214.4,11z M198.3,11h-8.1c-0.6,0-1-0.4-1-1s0.4-1,1-1h8.1c0.6,0,1,0.4,1,1S198.9,11,198.3,11z
				 M182.2,11h-8.1c-0.6,0-1-0.4-1-1s0.4-1,1-1h8.1c0.6,0,1,0.4,1,1S182.7,11,182.2,11z M166.1,11H158c-0.6,0-1-0.4-1-1s0.4-1,1-1
				h8.1c0.6,0,1,0.4,1,1S166.6,11,166.1,11z M150,11h-8.1c-0.6,0-1-0.4-1-1s0.4-1,1-1h8.1c0.6,0,1,0.4,1,1S150.5,11,150,11z
				 M133.9,11h-8.1c-0.6,0-1-0.4-1-1s0.4-1,1-1h8.1c0.6,0,1,0.4,1,1S134.4,11,133.9,11z M117.8,11h-8.1c-0.6,0-1-0.4-1-1s0.4-1,1-1
				h8.1c0.6,0,1,0.4,1,1S118.3,11,117.8,11z M101.6,11h-8.1c-0.6,0-1-0.4-1-1s0.4-1,1-1h8.1c0.6,0,1,0.4,1,1S102.2,11,101.6,11z
				 M85.5,11h-8.1c-0.6,0-1-0.4-1-1s0.4-1,1-1h8.1c0.6,0,1,0.4,1,1S86.1,11,85.5,11z M69.4,11h-8.1c-0.6,0-1-0.4-1-1s0.4-1,1-1h8.1
				c0.6,0,1,0.4,1,1S70,11,69.4,11z M53.3,11h-8.1c-0.6,0-1-0.4-1-1s0.4-1,1-1h8.1c0.6,0,1,0.4,1,1S53.9,11,53.3,11z M37.2,11h-8.1
				c-0.6,0-1-0.4-1-1s0.4-1,1-1h8.1c0.6,0,1,0.4,1,1S37.8,11,37.2,11z M21.1,11h-8.1c-0.6,0-1-0.4-1-1s0.4-1,1-1h8.1
				c0.6,0,1,0.4,1,1S21.7,11,21.1,11z"/>
		</g>
		<g>
			<path class="st4" d="M307,11h-4c-0.6,0-1-0.4-1-1s0.4-1,1-1h4c0.6,0,1,0.4,1,1S307.6,11,307,11z"/>
		</g>
	</g>
	<g>
		<g>
			<path class="st4" d="M28.7,237c-0.6,0-1-0.4-1-1v-4c0-0.6,0.4-1,1-1s1,0.4,1,1v4C29.7,236.5,29.2,237,28.7,237z"/>
		</g>
		<g>
			<path class="st4" d="M28.7,225.2c-0.6,0-1-0.4-1-1v-7.8c0-0.6,0.4-1,1-1s1,0.4,1,1v7.8C29.7,224.7,29.2,225.2,28.7,225.2z
				 M28.7,209.5c-0.6,0-1-0.4-1-1v-7.8c0-0.6,0.4-1,1-1s1,0.4,1,1v7.8C29.7,209.1,29.2,209.5,28.7,209.5z M28.7,193.9
				c-0.6,0-1-0.4-1-1V185c0-0.6,0.4-1,1-1s1,0.4,1,1v7.8C29.7,193.4,29.2,193.9,28.7,193.9z M28.7,178.2c-0.6,0-1-0.4-1-1v-7.8
				c0-0.6,0.4-1,1-1s1,0.4,1,1v7.8C29.7,177.8,29.2,178.2,28.7,178.2z M28.7,162.5c-0.6,0-1-0.4-1-1v-7.8c0-0.6,0.4-1,1-1s1,0.4,1,1
				v7.8C29.7,162.1,29.2,162.5,28.7,162.5z M28.7,146.9c-0.6,0-1-0.4-1-1v-7.8c0-0.6,0.4-1,1-1s1,0.4,1,1v7.8
				C29.7,146.4,29.2,146.9,28.7,146.9z M28.7,131.2c-0.6,0-1-0.4-1-1v-7.8c0-0.6,0.4-1,1-1s1,0.4,1,1v7.8
				C29.7,130.8,29.2,131.2,28.7,131.2z M28.7,115.6c-0.6,0-1-0.4-1-1v-7.8c0-0.6,0.4-1,1-1s1,0.4,1,1v7.8
				C29.7,115.1,29.2,115.6,28.7,115.6z M28.7,99.9c-0.6,0-1-0.4-1-1v-7.8c0-0.6,0.4-1,1-1s1,0.4,1,1v7.8
				C29.7,99.5,29.2,99.9,28.7,99.9z M28.7,84.3c-0.6,0-1-0.4-1-1v-7.8c0-0.6,0.4-1,1-1s1,0.4,1,1v7.8C29.7,83.8,29.2,84.3,28.7,84.3
				z M28.7,68.6c-0.6,0-1-0.4-1-1v-7.8c0-0.6,0.4-1,1-1s1,0.4,1,1v7.8C29.7,68.2,29.2,68.6,28.7,68.6z M28.7,53c-0.6,0-1-0.4-1-1
				v-7.8c0-0.6,0.4-1,1-1s1,0.4,1,1V52C29.7,52.5,29.2,53,28.7,53z M28.7,37.3c-0.6,0-1-0.4-1-1v-7.8c0-0.6,0.4-1,1-1s1,0.4,1,1v7.8
				C29.7,36.9,29.2,37.3,28.7,37.3z M28.7,21.7c-0.6,0-1-0.4-1-1v-7.8c0-0.6,0.4-1,1-1s1,0.4,1,1v7.8C29.7,21.2,29.2,21.7,28.7,21.7
				z"/>
		</g>
		<g>
			<path class="st4" d="M28.7,6c-0.6,0-1-0.4-1-1V1c0-0.6,0.4-1,1-1s1,0.4,1,1v4C29.7,5.6,29.2,6,28.7,6z"/>
		</g>
	</g>
	<g>
		<g>
			<path class="st4" d="M278.7,237c-0.6,0-1-0.4-1-1v-4c0-0.6,0.4-1,1-1s1,0.4,1,1v4C279.7,236.5,279.2,237,278.7,237z"/>
		</g>
		<g>
			<path class="st4" d="M278.7,225.2c-0.6,0-1-0.4-1-1v-7.8c0-0.6,0.4-1,1-1s1,0.4,1,1v7.8C279.7,224.7,279.2,225.2,278.7,225.2z
				 M278.7,209.5c-0.6,0-1-0.4-1-1v-7.8c0-0.6,0.4-1,1-1s1,0.4,1,1v7.8C279.7,209.1,279.2,209.5,278.7,209.5z M278.7,193.9
				c-0.6,0-1-0.4-1-1V185c0-0.6,0.4-1,1-1s1,0.4,1,1v7.8C279.7,193.4,279.2,193.9,278.7,193.9z M278.7,178.2c-0.6,0-1-0.4-1-1v-7.8
				c0-0.6,0.4-1,1-1s1,0.4,1,1v7.8C279.7,177.8,279.2,178.2,278.7,178.2z M278.7,162.5c-0.6,0-1-0.4-1-1v-7.8c0-0.6,0.4-1,1-1
				s1,0.4,1,1v7.8C279.7,162.1,279.2,162.5,278.7,162.5z M278.7,146.9c-0.6,0-1-0.4-1-1v-7.8c0-0.6,0.4-1,1-1s1,0.4,1,1v7.8
				C279.7,146.4,279.2,146.9,278.7,146.9z M278.7,131.2c-0.6,0-1-0.4-1-1v-7.8c0-0.6,0.4-1,1-1s1,0.4,1,1v7.8
				C279.7,130.8,279.2,131.2,278.7,131.2z M278.7,115.6c-0.6,0-1-0.4-1-1v-7.8c0-0.6,0.4-1,1-1s1,0.4,1,1v7.8
				C279.7,115.1,279.2,115.6,278.7,115.6z M278.7,99.9c-0.6,0-1-0.4-1-1v-7.8c0-0.6,0.4-1,1-1s1,0.4,1,1v7.8
				C279.7,99.5,279.2,99.9,278.7,99.9z M278.7,84.3c-0.6,0-1-0.4-1-1v-7.8c0-0.6,0.4-1,1-1s1,0.4,1,1v7.8
				C279.7,83.8,279.2,84.3,278.7,84.3z M278.7,68.6c-0.6,0-1-0.4-1-1v-7.8c0-0.6,0.4-1,1-1s1,0.4,1,1v7.8
				C279.7,68.2,279.2,68.6,278.7,68.6z M278.7,53c-0.6,0-1-0.4-1-1v-7.8c0-0.6,0.4-1,1-1s1,0.4,1,1V52C279.7,52.5,279.2,53,278.7,53
				z M278.7,37.3c-0.6,0-1-0.4-1-1v-7.8c0-0.6,0.4-1,1-1s1,0.4,1,1v7.8C279.7,36.9,279.2,37.3,278.7,37.3z M278.7,21.7
				c-0.6,0-1-0.4-1-1v-7.8c0-0.6,0.4-1,1-1s1,0.4,1,1v7.8C279.7,21.2,279.2,21.7,278.7,21.7z"/>
		</g>
		<g>
			<path class="st4" d="M278.7,6c-0.6,0-1-0.4-1-1V1c0-0.6,0.4-1,1-1s1,0.4,1,1v4C279.7,5.6,279.2,6,278.7,6z"/>
		</g>
	</g>
	<g>
		<g>
			<path class="st4" d="M5,226H1c-0.6,0-1-0.4-1-1s0.4-1,1-1h4c0.6,0,1,0.4,1,1S5.6,226,5,226z"/>
		</g>
		<g>
			<path class="st4" d="M294.9,226h-8.1c-0.6,0-1-0.4-1-1s0.4-1,1-1h8.1c0.6,0,1,0.4,1,1S295.5,226,294.9,226z M278.8,226h-8.1
				c-0.6,0-1-0.4-1-1s0.4-1,1-1h8.1c0.6,0,1,0.4,1,1S279.4,226,278.8,226z M262.7,226h-8.1c-0.6,0-1-0.4-1-1s0.4-1,1-1h8.1
				c0.6,0,1,0.4,1,1S263.3,226,262.7,226z M246.6,226h-8.1c-0.6,0-1-0.4-1-1s0.4-1,1-1h8.1c0.6,0,1,0.4,1,1S247.2,226,246.6,226z
				 M230.5,226h-8.1c-0.6,0-1-0.4-1-1s0.4-1,1-1h8.1c0.6,0,1,0.4,1,1S231.1,226,230.5,226z M214.4,226h-8.1c-0.6,0-1-0.4-1-1
				s0.4-1,1-1h8.1c0.6,0,1,0.4,1,1S215,226,214.4,226z M198.3,226h-8.1c-0.6,0-1-0.4-1-1s0.4-1,1-1h8.1c0.6,0,1,0.4,1,1
				S198.9,226,198.3,226z M182.2,226h-8.1c-0.6,0-1-0.4-1-1s0.4-1,1-1h8.1c0.6,0,1,0.4,1,1S182.7,226,182.2,226z M166.1,226H158
				c-0.6,0-1-0.4-1-1s0.4-1,1-1h8.1c0.6,0,1,0.4,1,1S166.6,226,166.1,226z M150,226h-8.1c-0.6,0-1-0.4-1-1s0.4-1,1-1h8.1
				c0.6,0,1,0.4,1,1S150.5,226,150,226z M133.9,226h-8.1c-0.6,0-1-0.4-1-1s0.4-1,1-1h8.1c0.6,0,1,0.4,1,1S134.4,226,133.9,226z
				 M117.8,226h-8.1c-0.6,0-1-0.4-1-1s0.4-1,1-1h8.1c0.6,0,1,0.4,1,1S118.3,226,117.8,226z M101.6,226h-8.1c-0.6,0-1-0.4-1-1
				s0.4-1,1-1h8.1c0.6,0,1,0.4,1,1S102.2,226,101.6,226z M85.5,226h-8.1c-0.6,0-1-0.4-1-1s0.4-1,1-1h8.1c0.6,0,1,0.4,1,1
				S86.1,226,85.5,226z M69.4,226h-8.1c-0.6,0-1-0.4-1-1s0.4-1,1-1h8.1c0.6,0,1,0.4,1,1S70,226,69.4,226z M53.3,226h-8.1
				c-0.6,0-1-0.4-1-1s0.4-1,1-1h8.1c0.6,0,1,0.4,1,1S53.9,226,53.3,226z M37.2,226h-8.1c-0.6,0-1-0.4-1-1s0.4-1,1-1h8.1
				c0.6,0,1,0.4,1,1S37.8,226,37.2,226z M21.1,226h-8.1c-0.6,0-1-0.4-1-1s0.4-1,1-1h8.1c0.6,0,1,0.4,1,1S21.7,226,21.1,226z"/>
		</g>
		<g>
			<path class="st4" d="M307,226h-4c-0.6,0-1-0.4-1-1s0.4-1,1-1h4c0.6,0,1,0.4,1,1S307.6,226,307,226z"/>
		</g>
	</g>
	<g>
		<g>
			<path class="st4" d="M158,118.4h-4c-0.6,0-1-0.4-1-1s0.4-1,1-1h4c0.6,0,1,0.4,1,1S158.6,118.4,158,118.4z"/>
		</g>
		<g>
			<path class="st4" d="M295.6,118.4h-7.6c-0.6,0-1-0.4-1-1s0.4-1,1-1h7.6c0.6,0,1,0.4,1,1S296.1,118.4,295.6,118.4z M280.3,118.4
				h-7.6c-0.6,0-1-0.4-1-1s0.4-1,1-1h7.6c0.6,0,1,0.4,1,1S280.8,118.4,280.3,118.4z M265,118.4h-7.6c-0.6,0-1-0.4-1-1s0.4-1,1-1h7.6
				c0.6,0,1,0.4,1,1S265.5,118.4,265,118.4z M249.7,118.4h-7.6c-0.6,0-1-0.4-1-1s0.4-1,1-1h7.6c0.6,0,1,0.4,1,1
				S250.3,118.4,249.7,118.4z M234.4,118.4h-7.6c-0.6,0-1-0.4-1-1s0.4-1,1-1h7.6c0.6,0,1,0.4,1,1S235,118.4,234.4,118.4z
				 M219.1,118.4h-7.6c-0.6,0-1-0.4-1-1s0.4-1,1-1h7.6c0.6,0,1,0.4,1,1S219.7,118.4,219.1,118.4z M203.9,118.4h-7.6
				c-0.6,0-1-0.4-1-1s0.4-1,1-1h7.6c0.6,0,1,0.4,1,1S204.4,118.4,203.9,118.4z M188.6,118.4h-7.6c-0.6,0-1-0.4-1-1s0.4-1,1-1h7.6
				c0.6,0,1,0.4,1,1S189.1,118.4,188.6,118.4z M173.3,118.4h-7.6c-0.6,0-1-0.4-1-1s0.4-1,1-1h7.6c0.6,0,1,0.4,1,1
				S173.8,118.4,173.3,118.4z"/>
		</g>
		<g>
			<path class="st4" d="M307.2,118.4h-4c-0.6,0-1-0.4-1-1s0.4-1,1-1h4c0.6,0,1,0.4,1,1S307.8,118.4,307.2,118.4z"/>
		</g>
	</g>
	<g>
		<g>
			<path class="st0" d="M5,109.8H1c-0.6,0-1-0.4-1-1s0.4-1,1-1h4c0.6,0,1,0.4,1,1S5.6,109.8,5,109.8z"/>
		</g>
		<g>
			<path class="st0" d="M105.1,109.8h-8.3c-0.6,0-1-0.4-1-1s0.4-1,1-1h8.3c0.6,0,1,0.4,1,1S105.6,109.8,105.1,109.8z M88.4,109.8
				h-8.3c-0.6,0-1-0.4-1-1s0.4-1,1-1h8.3c0.6,0,1,0.4,1,1S89,109.8,88.4,109.8z M71.7,109.8h-8.3c-0.6,0-1-0.4-1-1s0.4-1,1-1h8.3
				c0.6,0,1,0.4,1,1S72.3,109.8,71.7,109.8z M55,109.8h-8.3c-0.6,0-1-0.4-1-1s0.4-1,1-1H55c0.6,0,1,0.4,1,1S55.6,109.8,55,109.8z
				 M38.4,109.8H30c-0.6,0-1-0.4-1-1s0.4-1,1-1h8.3c0.6,0,1,0.4,1,1S38.9,109.8,38.4,109.8z M21.7,109.8h-8.3c-0.6,0-1-0.4-1-1
				s0.4-1,1-1h8.3c0.6,0,1,0.4,1,1S22.2,109.8,21.7,109.8z"/>
		</g>
		<g>
			<path class="st0" d="M117.4,109.8h-4c-0.6,0-1-0.4-1-1s0.4-1,1-1h4c0.6,0,1,0.4,1,1S118,109.8,117.4,109.8z"/>
		</g>
	</g>
	<g>
		<g>
			<path class="st0" d="M5,77.6H1c-0.6,0-1-0.4-1-1s0.4-1,1-1h4c0.6,0,1,0.4,1,1S5.6,77.6,5,77.6z"/>
		</g>
		<g>
			<path class="st0" d="M105.1,77.6h-8.3c-0.6,0-1-0.4-1-1s0.4-1,1-1h8.3c0.6,0,1,0.4,1,1S105.6,77.6,105.1,77.6z M88.4,77.6h-8.3
				c-0.6,0-1-0.4-1-1s0.4-1,1-1h8.3c0.6,0,1,0.4,1,1S89,77.6,88.4,77.6z M71.7,77.6h-8.3c-0.6,0-1-0.4-1-1s0.4-1,1-1h8.3
				c0.6,0,1,0.4,1,1S72.3,77.6,71.7,77.6z M55,77.6h-8.3c-0.6,0-1-0.4-1-1s0.4-1,1-1H55c0.6,0,1,0.4,1,1S55.6,77.6,55,77.6z
				 M38.4,77.6H30c-0.6,0-1-0.4-1-1s0.4-1,1-1h8.3c0.6,0,1,0.4,1,1S38.9,77.6,38.4,77.6z M21.7,77.6h-8.3c-0.6,0-1-0.4-1-1
				s0.4-1,1-1h8.3c0.6,0,1,0.4,1,1S22.2,77.6,21.7,77.6z"/>
		</g>
		<g>
			<path class="st0" d="M117.4,77.6h-4c-0.6,0-1-0.4-1-1s0.4-1,1-1h4c0.6,0,1,0.4,1,1S118,77.6,117.4,77.6z"/>
		</g>
	</g>
	<g>
		<g>
			<path class="st4" d="M260.2,202.4h-4c-0.6,0-1-0.4-1-1s0.4-1,1-1h4c0.6,0,1,0.4,1,1S260.8,202.4,260.2,202.4z"/>
		</g>
		<g>
			<path class="st4" d="M294.4,202.4h-8.6c-0.6,0-1-0.4-1-1s0.4-1,1-1h8.6c0.6,0,1,0.4,1,1S295,202.4,294.4,202.4z M277.3,202.4
				h-8.6c-0.6,0-1-0.4-1-1s0.4-1,1-1h8.6c0.6,0,1,0.4,1,1S277.9,202.4,277.3,202.4z"/>
		</g>
		<g>
			<path class="st4" d="M307,202.4h-4c-0.6,0-1-0.4-1-1s0.4-1,1-1h4c0.6,0,1,0.4,1,1S307.6,202.4,307,202.4z"/>
		</g>
	</g>
	<g>
		<g>
			<path class="st4" d="M141.2,162.4c-0.5,0-1-0.4-1-1c0-3.1-0.1-3.7-0.1-3.8c-0.1-0.5,0.3-1.1,0.8-1.2c0.5-0.1,1,0.2,1.2,0.7
				c0,0.2,0.1,0.5,0.2,4.2C142.2,162,141.8,162.4,141.2,162.4C141.2,162.4,141.2,162.4,141.2,162.4z"/>
		</g>
		<g>
			<path class="st4" d="M141.1,224.8C141.1,224.8,141.1,224.8,141.1,224.8c-0.6,0-1-0.5-1-1l0-7.8c0-0.6,0.5-1,1-1c0,0,0,0,0,0
				c0.6,0,1,0.5,1,1l0,7.8C142.1,224.4,141.7,224.8,141.1,224.8z M141.2,209.2C141.2,209.2,141.2,209.2,141.2,209.2
				c-0.6,0-1-0.5-1-1l0-7.8c0-0.6,0.4-1,1-1c0,0,0,0,0,0c0.6,0,1,0.5,1,1l0,7.8C142.2,208.8,141.8,209.2,141.2,209.2z M141.3,193.6
				C141.3,193.6,141.3,193.6,141.3,193.6c-0.6,0-1-0.4-1-1l0-7.8c0-0.6,0.4-1,1-1c0,0,0,0,0,0c0.6,0,1,0.4,1,1l0,7.8
				C142.3,193.2,141.8,193.6,141.3,193.6z M141.3,178c-0.6,0-1-0.4-1-1c0-2.8,0-5.4,0-7.8c0-0.6,0.4-1,1-1c0,0,0,0,0,0
				c0.6,0,1,0.4,1,1c0,2.4,0,5,0,7.8C142.3,177.6,141.8,178,141.3,178C141.3,178,141.3,178,141.3,178z"/>
		</g>
		<g>
			<path class="st4" d="M141.1,236.6C141.1,236.6,141.1,236.6,141.1,236.6c-0.6,0-1-0.5-1-1l0-4c0-0.6,0.5-1,1-1c0,0,0,0,0,0
				c0.6,0,1,0.5,1,1l0,4C142.1,236.1,141.6,236.6,141.1,236.6z"/>
		</g>
	</g>
	<g>
		<g>
			<path class="st4" d="M253.8,153.8c-0.5,0-1-0.4-1-1c0-3.1-0.1-3.7-0.1-3.8c-0.1-0.5,0.3-1.1,0.8-1.2c0.5-0.1,1,0.2,1.2,0.7
				c0,0.2,0.1,0.4,0.2,4.2C254.8,153.3,254.4,153.7,253.8,153.8C253.8,153.8,253.8,153.8,253.8,153.8z"/>
		</g>
		<g>
			<path class="st4" d="M253.7,229.4C253.7,229.4,253.7,229.4,253.7,229.4c-0.6,0-1-0.5-1-1l0-7.6c0-0.6,0.4-1,1-1c0,0,0,0,0,0
				c0.6,0,1,0.5,1,1l0,7.6C254.7,228.9,254.3,229.4,253.7,229.4z M253.8,214.2C253.8,214.2,253.8,214.2,253.8,214.2
				c-0.6,0-1-0.5-1-1l0-7.6c0-0.6,0.4-1,1-1c0,0,0,0,0,0c0.6,0,1,0.5,1,1l0,7.6C254.8,213.8,254.3,214.2,253.8,214.2z M253.8,199.1
				C253.8,199.1,253.8,199.1,253.8,199.1c-0.6,0-1-0.5-1-1l0-7.6c0-0.6,0.4-1,1-1c0,0,0,0,0,0c0.6,0,1,0.5,1,1l0,7.6
				C254.8,198.7,254.4,199.1,253.8,199.1z M253.9,184c-0.6,0-1-0.4-1-1l0-7.6c0-0.6,0.4-1,1-1l0,0c0.6,0,1,0.4,1,1l0,7.6
				C254.9,183.5,254.4,184,253.9,184z M253.9,168.9c-0.6,0-1-0.4-1-1c0-2.7,0-5.3,0-7.6c0-0.6,0.4-1,1-1c0,0,0,0,0,0
				c0.6,0,1,0.4,1,1c0,2.3,0,4.8,0,7.6C254.9,168.4,254.4,168.9,253.9,168.9L253.9,168.9z"/>
		</g>
		<g>
			<path class="st4" d="M253.7,240.9C253.7,240.9,253.7,240.9,253.7,240.9c-0.6,0-1-0.5-1-1l0-4c0-0.6,0.5-1,1-1c0,0,0,0,0,0
				c0.6,0,1,0.5,1,1l0,4C254.7,240.4,254.2,240.9,253.7,240.9z"/>
		</g>
	</g>
	<g>
		<g>
			<rect x="292.2" y="28.5" class="st4" width="2" height="74.2"/>
		</g>
		<g>
			<g>
				<polygon class="st4" points="286.5,33.6 293.2,30.7 299.8,33.6 293.2,17.8 				"/>
			</g>
		</g>
		<g>
			<g>
				<polygon class="st4" points="286.5,97.7 293.2,100.5 299.8,97.7 293.2,113.5 				"/>
			</g>
		</g>
	</g>
	<g>
		<g>
			<rect x="292.2" y="134.5" class="st4" width="2" height="53.2"/>
		</g>
		<g>
			<g>
				<polygon class="st4" points="286.5,139.6 293.2,136.7 299.8,139.6 293.2,123.8 				"/>
			</g>
		</g>
		<g>
			<g>
				<polygon class="st4" points="286.5,182.7 293.2,185.5 299.8,182.7 293.2,198.5 				"/>
			</g>
		</g>
	</g>
	<g>
		<g>
			<rect x="11.6" y="124.9" class="st4" width="2" height="83.2"/>
		</g>
		<g>
			<g>
				<polygon class="st4" points="5.9,129.9 12.6,127.1 19.2,129.9 12.6,114.1 				"/>
			</g>
		</g>
		<g>
			<g>
				<polygon class="st4" points="5.9,203 12.6,205.8 19.2,203 12.6,218.8 				"/>
			</g>
		</g>
	</g>
	<g>
		<g>
			<rect x="11.6" y="26.4" class="st4" width="2" height="33.2"/>
		</g>
		<g>
			<g>
				<polygon class="st4" points="5.9,31.4 12.6,28.6 19.2,31.4 12.6,15.6 				"/>
			</g>
		</g>
		<g>
			<g>
				<polygon class="st4" points="5.9,54.5 12.6,57.3 19.2,54.5 12.6,70.3 				"/>
			</g>
		</g>
	</g>
	<g>
		<g>
			<g>
				<polygon class="st2" points="58.1,183.9 58.1,224.8 67.9,224.8 67.9,183.9 118,183.9 118,224.8 126.7,224.8 126.7,183.9 
					126.7,170.2 58.1,170.2 				"/>
			</g>
			<g>
				<path class="st1" d="M126.7,228.3H118c-1.9,0-3.5-1.6-3.5-3.5v-37.3H71.4v37.3c0,1.9-1.6,3.5-3.5,3.5h-9.7
					c-1.9,0-3.5-1.6-3.5-3.5v-54.6c0-1.9,1.6-3.5,3.5-3.5h68.6c1.9,0,3.5,1.6,3.5,3.5v54.6C130.2,226.7,128.6,228.3,126.7,228.3z
					 M121.5,221.3h1.7v-47.6H61.6v47.6h2.7v-37.3c0-1.9,1.6-3.5,3.5-3.5H118c1.9,0,3.5,1.6,3.5,3.5V221.3z"/>
			</g>
		</g>
		<g>
			<g>
				<path class="st2" d="M279.5,131.2v-13.8h-135l-2.9-30.8h19.4v-9.6h-20.4l-6.4-66.7l-6.3,0.1v66.6H28.7v9.6h99.4v30.8l-5.2,11.5
					h-7.6V119h2.2v-10.4H54.3V119h40.5v9.8h-9.2v7.1h34l-5.5,12.2h-10.3v10.3h3.2v11.8h17.2v-11.8h19v-10.3h-8.7l5.6-17h121.4V142
					h-8v9.2h8v36.2h3.6c-1.4,7.4-8.7,9.5-8.7,9.5s0,1.5,0,4.5c10.6-2.6,13.9-14,13.9-14h1.9v-36.2h7.3V142h-7.3v-10.8H279.5z"/>
			</g>
			<g>
				<path class="st1" d="M256.3,204.9c-0.8,0-1.5-0.3-2.2-0.8c-0.8-0.7-1.3-1.7-1.3-2.8c0-2.9,0-4.4,0-4.4c0-1.6,1-3,2.6-3.4
					c0.1,0,2.6-0.8,4.4-3c-1.1-0.6-1.9-1.8-1.9-3.1v-32.7h-4.5c-1.9,0-3.5-1.6-3.5-3.5V142c0-1.9,1.6-3.5,3.5-3.5h4.5v-3.8H142.6
					l-3.3,10h3.9c1.9,0,3.5,1.6,3.5,3.5v10.3c0,1.9-1.6,3.5-3.5,3.5h-15.5v8.3c0,1.9-1.6,3.5-3.5,3.5H107c-1.9,0-3.5-1.6-3.5-3.5
					V162c-1.8-0.1-3.2-1.7-3.2-3.5v-10.3c0-1.9,1.6-3.5,3.5-3.5h8.1l2.3-5.2H85.7c-1.9,0-3.5-1.6-3.5-3.5v-7.1
					c0-1.9,1.6-3.5,3.5-3.5h5.7v-2.8h-37c-1.9,0-3.5-1.6-3.5-3.5v-10.4c0-1.9,1.6-3.5,3.5-3.5h63.2c1.9,0,3.5,1.6,3.5,3.5V119
					c0,1.5-0.9,2.8-2.2,3.3v3.1h1.8l4-8.8V90.1H28.7c-1.9,0-3.5-1.6-3.5-3.5v-9.6c0-1.9,1.6-3.5,3.5-3.5h95.9V10.3
					c0-1.9,1.5-3.5,3.5-3.5l6.3-0.1c0,0,0,0,0,0c1.8,0,3.3,1.4,3.5,3.2l6.1,63.5h17.2c1.9,0,3.5,1.6,3.5,3.5v9.6
					c0,1.9-1.6,3.5-3.5,3.5h-15.6l2.3,23.8h131.8c1.9,0,3.5,1.6,3.5,3.5v13.8c0,1.9-1.6,3.5-3.5,3.5h-3.8v3.8h3.8
					c1.9,0,3.5,1.6,3.5,3.5v9.2c0,1.9-1.6,3.5-3.5,3.5h-3.8v32.7c0,1.8-1.3,3.2-3,3.5c-1.8,4-6.3,11.6-15.5,13.9
					C256.9,204.8,256.6,204.9,256.3,204.9z M264.9,183.9h0.1c1,0,1.9,0.4,2.6,1.2c0.3-0.3,0.7-0.6,1.1-0.8v-33.1
					c0-1.9,1.6-3.5,3.5-3.5h3.8v-2.2h-3.8c-1.9,0-3.5-1.6-3.5-3.5v-10.8c0-1.9,1.6-3.5,3.5-3.5h3.8v-6.8H144.6
					c-1.8,0-3.3-1.4-3.5-3.2l-2.9-30.8c-0.1-1,0.2-2,0.9-2.7s1.6-1.1,2.6-1.1h15.9v-2.6h-16.9c-1.8,0-3.3-1.4-3.5-3.2l-5.7-59.5
					v59.1c0,1.9-1.6,3.5-3.5,3.5H32.2v2.6h95.9c1.9,0,3.5,1.6,3.5,3.5v30.8c0,0.5-0.1,1-0.3,1.4l-5.2,11.5c-0.6,1.3-1.8,2.1-3.2,2.1
					h-7.6c-1.9,0-3.5-1.6-3.5-3.5V119c0-1.5,0.9-2.8,2.2-3.3v-3.6H57.8v3.4h37c1.9,0,3.5,1.6,3.5,3.5v9.8c0,1.9-1.6,3.5-3.5,3.5
					h-5.7v0.1h30.5c1.2,0,2.3,0.6,2.9,1.6s0.7,2.3,0.2,3.3l-5.5,12.2c-0.6,1.3-1.8,2.1-3.2,2.1h-6.8v3.3c1.8,0.1,3.2,1.7,3.2,3.5
					v8.3h10.2v-8.3c0-1.9,1.6-3.5,3.5-3.5h15.5v-3.3h-5.2c-1.1,0-2.2-0.5-2.8-1.4c-0.7-0.9-0.8-2.1-0.5-3.1l5.6-17
					c0.5-1.4,1.8-2.4,3.3-2.4h121.4c1.9,0,3.5,1.6,3.5,3.5V142c0,1.9-1.6,3.5-3.5,3.5h-4.5v2.2h4.5c1.9,0,3.5,1.6,3.5,3.5V183.9z"/>
			</g>
		</g>
	</g>
</g>
</svg>
