<?xml version="1.0" encoding="utf-8"?>
<!-- Generator: Adobe Illustrator 19.2.1, SVG Export Plug-In . SVG Version: 6.00 Build 0)  -->
<svg version="1.1" id="Слой_1" xmlns="http://www.w3.org/2000/svg" xmlns:xlink="http://www.w3.org/1999/xlink" x="0px" y="0px"
	 viewBox="0 0 195 246.8" style="enable-background:new 0 0 195 246.8;" xml:space="preserve">
<style type="text/css">
	.st0{fill:#DDDDDD;}
	.st1{fill:#24AAFF;}
	.st2{fill:#FFFFFF;}
	.st3{fill:#FF9F06;}
	.st4{fill:#CCCCCC;}
</style>
<g>
	<g>
		<g>
			<path class="st3" d="M79.4,218.5H58.8c-1.4,0-2.5-1.1-2.5-2.5V48.1c0-0.1,0-0.2,0-0.3l5-45.6C61.5,1,62.5,0,63.8,0h10
				c1.3,0,2.3,0.9,2.5,2.2l5.6,46.2c0,0.1,0,0.2,0,0.3V216C81.9,217.4,80.8,218.5,79.4,218.5z M61.3,213.5h15.6V48.8L71.6,5H66
				l-4.7,43.2V213.5z"/>
		</g>
		<g>
			<path class="st3" d="M77.6,216.5c-0.8,0-1.5-0.4-2-1l-17.5-23.9c-0.6-0.9-0.6-2.1,0-2.9L74.4,166l-16.3-21.1
				c-0.7-0.9-0.7-2.2,0-3.1l16.7-20.4L58.1,99.3c-0.6-0.8-0.7-2-0.1-2.9l18.7-28.5L58.6,53.8c-1-0.8-1.3-2.3-0.5-3.4l14.8-21.5
				L62.7,5.6c-0.6-1.3,0-2.7,1.3-3.3c1.3-0.6,2.7,0,3.3,1.3L78,28.2c0.3,0.8,0.3,1.7-0.2,2.4L63.5,51.3l18.2,14.1
				c1,0.8,1.3,2.3,0.6,3.3l-19,28.9L80,120c0.7,0.9,0.7,2.2-0.1,3.1l-16.7,20.3l16.2,21c0.7,0.9,0.7,2.1,0,3l-16.4,22.6l16.4,22.4
				c0.8,1.1,0.6,2.7-0.5,3.5C78.7,216.3,78.1,216.5,77.6,216.5z"/>
		</g>
		<g>
			<path class="st3" d="M58.8,216.5c-0.6,0-1.1-0.2-1.6-0.6c-1.1-0.9-1.2-2.5-0.3-3.5l18.5-22.4l-17.2-21.6c-0.7-0.9-0.7-2.2,0-3.1
				l17.1-20.9l-17.2-21.9c-0.7-0.9-0.7-2.2,0-3.1l17.2-22L56.8,72.9c-0.7-1-0.7-2.3,0.1-3.2l16.3-18.1L59.4,29.4
				c-0.5-0.7-0.5-1.6-0.1-2.4L70.5,3.5c0.6-1.2,2.1-1.8,3.3-1.2c1.2,0.6,1.8,2.1,1.2,3.3L64.3,27.9l14.1,22.6c0.6,0.9,0.5,2.2-0.3,3
				L62,71.5l18.5,24.3c0.7,0.9,0.7,2.2,0,3.1l-17.2,21.9l17.2,21.9c0.7,0.9,0.7,2.2,0,3.1l-17.1,20.9l17.2,21.7
				c0.7,0.9,0.7,2.2,0,3.1l-19.8,24C60.2,216.1,59.5,216.5,58.8,216.5z"/>
		</g>
	</g>
	<g>
		<polygon class="st0" points="160.2,50.1 80.6,6.9 133.9,48.9 133,50 73.4,3 74.1,1.9 160.9,48.9 		"/>
	</g>
	<g>
		
			<rect x="-6.3" y="26.8" transform="matrix(0.7796 -0.6263 0.6263 0.7796 -9.823 27.1328)" class="st0" width="79.9" height="1.4"/>
	</g>
	<g>
		<g>
			<path class="st3" d="M188.2,71.7H2.5c-1.4,0-2.5-1.1-2.5-2.5V49.5C0,48.2,1.1,47,2.5,47h167.6c0.7,0,1.4,0.3,1.8,0.8l18.2,19.6
				c0.7,0.7,0.9,1.8,0.5,2.7C190.1,71.1,189.2,71.7,188.2,71.7z M5,66.7h177.5L169,52H5V66.7z"/>
		</g>
		<g>
			<path class="st3" d="M153.3,71.8c-0.7,0-1.3-0.3-1.8-0.8L136,54.9l-14.5,16.1c-0.5,0.5-1.2,0.9-1.9,0.8c-0.7,0-1.4-0.4-1.9-0.9
				l-14.3-17.4L87.9,70.9c-0.5,0.5-1.1,0.8-1.8,0.8c0,0,0,0,0,0c-0.7,0-1.4-0.3-1.8-0.8L67.9,53.3L53.6,70.8
				c-0.5,0.6-1.2,0.9-1.9,0.9c-0.8,0-1.5-0.3-1.9-0.9L35.8,54.5L21.4,70.9c-0.5,0.5-1.1,0.8-1.8,0.8c-0.7,0-1.4-0.3-1.9-0.8
				L0.7,52.4c-0.9-1-0.9-2.6,0.1-3.5c1-0.9,2.6-0.9,3.5,0.1l15.2,16.5L34,49.1c0.5-0.5,1.2-0.8,1.9-0.8c0.7,0,1.4,0.3,1.9,0.9
				l13.9,16.3l14.2-17.4c0.5-0.6,1.1-0.9,1.9-0.9c0.7,0,1.4,0.3,1.9,0.8L86,65.5l15.6-17.6c0.5-0.5,1.2-0.9,1.9-0.8
				c0.7,0,1.4,0.3,1.9,0.9l14.3,17.5l14.4-15.9c0.5-0.5,1.1-0.8,1.8-0.8c0,0,0,0,0,0c0.7,0,1.3,0.3,1.8,0.8l15.4,16.1l15-16.8
				c0.9-1,2.5-1.1,3.5-0.2c1,0.9,1.1,2.5,0.2,3.5l-16.8,18.8C154.7,71.4,154,71.7,153.3,71.8C153.3,71.8,153.3,71.8,153.3,71.8z"/>
		</g>
	</g>
	<g>
		<rect x="54.4" y="43.9" class="st2" width="28.4" height="30.9"/>
		<path class="st3" d="M82.9,77.3H54.4c-1.4,0-2.5-1.1-2.5-2.5V43.9c0-1.4,1.1-2.5,2.5-2.5h28.4c1.4,0,2.5,1.1,2.5,2.5v30.9
			C85.4,76.2,84.3,77.3,82.9,77.3z M56.9,72.3h23.4V46.4H56.9V72.3z"/>
	</g>
	<g>
		<g>
			<rect x="54.6" y="216" class="st0" width="29.7" height="8.2"/>
		</g>
		<g>
			<g>
				<polygon class="st0" points="65,222.7 57.4,222.7 42.7,244.6 40.5,244.6 40.5,246.8 56.4,246.8 56.4,244.6 54.6,244.6 				"/>
			</g>
			<g>
				<polygon class="st0" points="73.9,222.7 81.5,222.7 96.1,244.6 98.3,244.6 98.3,246.8 82.4,246.8 82.4,244.6 84.2,244.6 				"/>
			</g>
		</g>
	</g>
	<g>
		<rect x="158" y="48.4" class="st0" width="1.4" height="75.6"/>
	</g>
	<g>
		<polygon class="st0" points="151.3,114.4 166,114.4 166,119.3 160.5,126.5 157.3,126.5 151.3,119.1 		"/>
	</g>
	<g>
		<path class="st0" d="M159.9,126.9v3.2c0,0-3.3-0.2-3.7,2.3c-0.3,1.8,1,2.8,2.2,2.9c0.9,0.1,2.6-0.3,2.6-2.5c0-2.2,1.9-2.4,1.9-1.8
			c0,0.8,0.5,1.8,0.2,3.3c-0.1,0.6-1,4.3-4.2,4.5c-3.1,0.3-6.6-1.1-6.6-5.3c0-4.5,4.4-5.7,5.6-5.7c0.2,0,0.1-1.6,0.1-1.6h2
			L159.9,126.9z"/>
	</g>
	<g>
		<path class="st1" d="M187.4,167.5h-56.7c-1.9,0-3.5-1.6-3.5-3.5v-11.5c0-1.9,1.6-3.5,3.5-3.5h56.7c1.9,0,3.5,1.6,3.5,3.5V164
			C190.9,166,189.3,167.5,187.4,167.5z M134.2,160.5h49.7V156h-49.7V160.5z"/>
	</g>
	<g>
		<path class="st1" d="M187.4,180.8h-56.7c-1.9,0-3.5-1.6-3.5-3.5v-10.9c0-1.9,1.6-3.5,3.5-3.5h56.7c1.9,0,3.5,1.6,3.5,3.5v10.9
			C190.9,179.2,189.3,180.8,187.4,180.8z M134.2,173.8h49.7v-3.9h-49.7V173.8z"/>
	</g>
	<g>
		<path class="st1" d="M191.5,187.8h-64.9c-1.9,0-3.5-1.6-3.5-3.5v-6.1c0-1.9,1.6-3.5,3.5-3.5h64.9c1.9,0,3.5,1.6,3.5,3.5v6.1
			C195,186.2,193.4,187.8,191.5,187.8z"/>
	</g>
	<g>
		<polygon class="st0" points="186.8,180 157.8,138.6 131.3,180 130.1,179.2 157.7,136.1 188,179.2 		"/>
	</g>
</g>
</svg>
