<?xml version="1.0" encoding="utf-8"?>
<!-- Generator: Adobe Illustrator 19.2.1, SVG Export Plug-In . SVG Version: 6.00 Build 0)  -->
<svg version="1.1" id="Слой_1" xmlns="http://www.w3.org/2000/svg" xmlns:xlink="http://www.w3.org/1999/xlink" x="0px" y="0px"
	 viewBox="0 0 257.9 219.5" style="enable-background:new 0 0 257.9 219.5;" xml:space="preserve">
<style type="text/css">
	.st0{fill:#DDDDDD;}
	.st1{fill:#24AAFF;}
	.st2{fill:#FFFFFF;}
	.st3{fill:#FF9F06;}
	.st4{fill:#CCCCCC;}
</style>
<g>
	<g>
		<rect x="36.9" y="110.6" class="st0" width="20.4" height="53.5"/>
	</g>
	<g>
		<rect x="69.7" y="106.1" class="st0" width="20.4" height="18.3"/>
	</g>
	<g>
		<g>
			<polygon class="st0" points="226,108.1 106.3,6.2 2.6,68.7 1.8,67.5 106.4,4.5 226.9,107.1 			"/>
		</g>
		<g>
			
				<rect x="13.1" y="40.2" transform="matrix(0.8545 -0.5195 0.5195 0.8545 -12.0526 38.6802)" class="st0" width="99.8" height="1.4"/>
		</g>
		<g>
			
				<rect x="162" y="-14" transform="matrix(0.6607 -0.7507 0.7507 0.6607 10.7705 142.2268)" class="st0" width="1.4" height="146.5"/>
		</g>
		<g>
			
				<rect x="162" y="-7" transform="matrix(0.6633 -0.7483 0.7483 0.6633 5.0734 144.1245)" class="st0" width="1.4" height="146.9"/>
		</g>
		<g>
			
				<rect x="162.8" y="-1.1" transform="matrix(0.6633 -0.7483 0.7483 0.6633 0.8756 146.6796)" class="st0" width="1.4" height="146.9"/>
		</g>
	</g>
	<g>
		<g>
			<path class="st3" d="M99,164H81.8c-1.4,0-2.5-1.1-2.5-2.5v-8.3h-0.7c-1.4,0-2.5-1.1-2.5-2.5v-10.3c0-1.4,1.1-2.5,2.5-2.5h8.7
				l3.3-7.2H60.5c-1.4,0-2.5-1.1-2.5-2.5v-7.1c0-1.4,1.1-2.5,2.5-2.5h35.6l4.3-9.5V2.6c0-1.4,1.1-2.5,2.5-2.5l6.3-0.1c0,0,0,0,0,0
				c1.3,0,2.4,1,2.5,2.3l10.2,107.1c0,0.3,0,0.7-0.1,1l-9,27.5h5.3c1.4,0,2.5,1.1,2.5,2.5v10.3c0,1.4-1.1,2.5-2.5,2.5h-16.5v8.3
				C101.5,162.9,100.4,164,99,164z M84.3,159h12.2v-8.3c0-1.4,1.1-2.5,2.5-2.5h16.5v-5.3h-6.2c-0.8,0-1.6-0.4-2-1s-0.6-1.5-0.4-2.2
				l9.9-30.3L106.9,5l-1.5,0v104.6c0,0.4-0.1,0.7-0.2,1l-5.2,11.5c-0.4,0.9-1.3,1.5-2.3,1.5H63v2.1h31.5c0.9,0,1.6,0.4,2.1,1.1
				c0.5,0.7,0.5,1.6,0.2,2.4l-5.5,12.2c-0.4,0.9-1.3,1.5-2.3,1.5h-7.8v5.3h0.7c1.4,0,2.5,1.1,2.5,2.5V159z"/>
		</g>
		<g>
			<path class="st3" d="M101.5,219.5h-8.7c-1.4,0-2.5-1.1-2.5-2.5v-38.3H45.2V217c0,1.4-1.1,2.5-2.5,2.5H33c-1.4,0-2.5-1.1-2.5-2.5
				v-54.6c0-1.4,1.1-2.5,2.5-2.5h68.6c1.4,0,2.5,1.1,2.5,2.5V217C104,218.4,102.9,219.5,101.5,219.5z M95.3,214.5H99v-49.6H35.5
				v49.6h4.7v-38.3c0-1.4,1.1-2.5,2.5-2.5h50.1c1.4,0,2.5,1.1,2.5,2.5V214.5z"/>
		</g>
	</g>
	<g>
		<path class="st2" d="M254.4,123.4v-13.8H113v13.8h123.2v10.8h-8v9.2h8v36.2h3.6c-1.4,7.4-8.7,9.5-8.7,9.5s0,1.5,0,4.5
			c10.6-2.6,13.9-14,13.9-14h1.9v-36.2h7.3v-9.2H247v-10.8H254.4z"/>
		<path class="st1" d="M231.2,197.1c-0.8,0-1.5-0.3-2.2-0.8c-0.9-0.7-1.3-1.7-1.3-2.8c0-2.9,0-4.4,0-4.4c0-1.6,1-3,2.6-3.4
			c0.1,0,2.6-0.8,4.4-3c-1.1-0.6-1.9-1.8-1.9-3.1v-32.7h-4.5c-1.9,0-3.5-1.6-3.5-3.5v-9.2c0-1.9,1.6-3.5,3.5-3.5h4.5v-3.8H113
			c-1.9,0-3.5-1.6-3.5-3.5v-13.8c0-1.9,1.6-3.5,3.5-3.5h141.4c1.9,0,3.5,1.6,3.5,3.5v13.8c0,1.9-1.6,3.5-3.5,3.5h-3.8v3.8h3.8
			c1.9,0,3.5,1.6,3.5,3.5v9.2c0,1.9-1.6,3.5-3.5,3.5h-3.8v32.7c0,1.8-1.3,3.2-3,3.5c-1.8,4-6.3,11.6-15.5,13.9
			C231.7,197.1,231.4,197.1,231.2,197.1z M239.8,176.1h0.1c1,0,1.9,0.4,2.6,1.2c0.3-0.3,0.7-0.6,1.1-0.8v-33.1
			c0-1.9,1.6-3.5,3.5-3.5h3.8v-2.2H247c-1.9,0-3.5-1.6-3.5-3.5v-10.8c0-1.9,1.6-3.5,3.5-3.5h3.8v-6.8H116.5v6.8h119.7
			c1.9,0,3.5,1.6,3.5,3.5v10.8c0,1.9-1.6,3.5-3.5,3.5h-4.5v2.2h4.5c1.9,0,3.5,1.6,3.5,3.5V176.1z"/>
	</g>
	<g>
		<rect x="3.5" y="69.2" class="st2" width="132.4" height="9.6"/>
		<path class="st1" d="M135.9,82.3H3.5c-1.9,0-3.5-1.6-3.5-3.5v-9.6c0-1.9,1.6-3.5,3.5-3.5h132.4c1.9,0,3.5,1.6,3.5,3.5v9.6
			C139.4,80.7,137.9,82.3,135.9,82.3z M7,75.3h125.4v-2.6H7V75.3z"/>
	</g>
	<g>
		<rect x="29.2" y="100.9" class="st2" width="63.2" height="10.4"/>
		<path class="st1" d="M92.4,114.8H29.2c-1.9,0-3.5-1.6-3.5-3.5v-10.4c0-1.9,1.6-3.5,3.5-3.5h63.2c1.9,0,3.5,1.6,3.5,3.5v10.4
			C95.9,113.2,94.3,114.8,92.4,114.8z M32.7,107.8h56.2v-3.4H32.7V107.8z"/>
	</g>
</g>
</svg>
