<?xml version="1.0" encoding="utf-8"?>
<!-- Generator: Adobe Illustrator 19.2.1, SVG Export Plug-In . SVG Version: 6.00 Build 0)  -->
<svg version="1.1" id="Слой_1" xmlns="http://www.w3.org/2000/svg" xmlns:xlink="http://www.w3.org/1999/xlink" x="0px" y="0px"
	 viewBox="0 0 205.4 212.7" style="enable-background:new 0 0 205.4 212.7;" xml:space="preserve">
<style type="text/css">
	.st0{fill:#DDDDDD;}
	.st1{fill:#24AAFF;}
	.st2{fill:#FFFFFF;}
	.st3{fill:#FF9F06;}
	.st4{fill:#CCCCCC;}
</style>
<g>
	<g>
		<polygon class="st0" points="110.7,206.9 90.7,206.9 94,0 107.4,0 		"/>
	</g>
	<g>
		<polygon class="st0" points="136.4,206.9 116.4,206.9 119.7,60 133,60 		"/>
	</g>
	<g>
		<polygon class="st0" points="85.7,206.9 65.7,206.9 69,54.4 82.4,54.4 		"/>
	</g>
	<g>
		<g>
			<path class="st1" d="M185.7,212.7h-57.1c-1.1,0-2.2-0.5-2.9-1.5s-0.8-2.1-0.5-3.2c0.1-0.4,12.1-35.3,12.1-49.3
				c0-11.3-2.6-26.2-2.6-26.3c-0.2-1,0.1-2.1,0.8-2.9s1.6-1.2,2.7-1.2H176c1,0,2,0.5,2.7,1.2s0.9,1.8,0.8,2.9c0,0.1-2.6,15-2.6,26.3
				c0,14,12,48.9,12.1,49.3c0.4,1.1,0.2,2.3-0.5,3.2S186.8,212.7,185.7,212.7z M133.5,205.7h47.3c-3.4-10.3-11-34.8-11-46.9
				c0-8.3,1.3-18,2.1-23.4h-29.5c0.8,5.4,2.1,15.1,2.1,23.4C144.5,170.8,136.9,195.4,133.5,205.7z"/>
		</g>
		<g>
			<g>
				<path class="st1" d="M75.7,212.7H18.6c-1.1,0-2.2-0.5-2.9-1.5s-0.8-2.1-0.5-3.2c0.1-0.4,12.1-35.3,12.1-49.3
					c0-11.3-2.6-26.2-2.6-26.3c-0.2-1,0.1-2.1,0.8-2.9s1.6-1.2,2.7-1.2H66c1,0,2,0.5,2.7,1.2s0.9,1.8,0.8,2.9c0,0.1-2.6,15-2.6,26.3
					c0,14,12,48.9,12.1,49.3c0.4,1.1,0.2,2.3-0.5,3.2S76.8,212.7,75.7,212.7z M23.5,205.7h47.3c-3.4-10.3-11-34.8-11-46.9
					c0-8.3,1.3-18,2.1-23.4H32.4c0.8,5.4,2.1,15.1,2.1,23.4C34.5,170.8,26.9,195.4,23.5,205.7z"/>
			</g>
			<g>
				<path class="st2" d="M124.1,142.7c0-15.5,3.5-35.5,3.5-35.5h-24.3h-1.2H77.8c0,0,3.5,20,3.5,35.5c0,19.5-16.3,66.5-16.3,66.5h37
					h1.2h37C140.3,209.2,124.1,162.2,124.1,142.7z"/>
				<path class="st1" d="M140.3,212.7H65.1c-1.1,0-2.2-0.5-2.9-1.5s-0.8-2.1-0.5-3.2c0.2-0.5,16.1-46.7,16.1-65.4
					c0-15-3.4-34.7-3.4-34.9c-0.2-1,0.1-2.1,0.8-2.9s1.6-1.2,2.7-1.2h49.8c1,0,2,0.5,2.7,1.2s0.9,1.8,0.8,2.9
					c0,0.2-3.4,19.9-3.4,34.9c0,18.7,15.9,64.9,16.1,65.4c0.4,1.1,0.2,2.3-0.5,3.2S141.4,212.7,140.3,212.7z M69.9,205.7h65.5
					c-4.1-12.5-14.9-46.6-14.9-63c0-11.5,1.9-25.3,2.9-32H81.9c1,6.7,2.9,20.5,2.9,32C84.8,159.1,74,193.2,69.9,205.7z"/>
			</g>
		</g>
	</g>
	<g>
		<g>
			<path class="st2" d="M100.2,59.3c-2.2,0-4.3,0.5-6.1,1.5C91,49.9,80.9,41.9,68.9,41.9c-14.5,0-26.3,11.8-26.3,26.3
				c0,2.9,0.5,5.7,1.3,8.3c-9.6,1.2-17.1,9.3-17.1,19.2c0,10.7,8.7,19.4,19.4,19.4s19.4-8.7,19.4-19.4c0-0.5,0-1-0.1-1.5
				c1.1,0.1,2.2,0.2,3.3,0.2c9.2,0,17.4-4.7,22-11.9c2.4,2.3,5.7,3.7,9.3,3.7c7.4,0,13.5-6,13.5-13.5S107.7,59.3,100.2,59.3z"/>
			<path class="st3" d="M46.3,117.6c-12.1,0-21.9-9.8-21.9-21.9c0-10.1,6.9-18.7,16.4-21.2c-0.5-2.1-0.7-4.2-0.7-6.3
				c0-15.9,12.9-28.8,28.8-28.8c11.8,0,22.4,7.3,26.7,18.1c1.5-0.4,3-0.7,4.6-0.7c8.8,0,16,7.2,16,16s-7.2,16-16,16
				c-3.2,0-6.2-0.9-8.8-2.6C86,93,77.8,97,68.9,97c-0.3,0-0.5,0-0.8,0C67.5,108.5,57.9,117.6,46.3,117.6z M68.9,44.4
				c-13.1,0-23.8,10.7-23.8,23.8c0,2.6,0.4,5.1,1.2,7.5c0.2,0.7,0.1,1.5-0.3,2.1c-0.4,0.6-1.1,1.1-1.8,1.1
				c-8.5,1-14.9,8.2-14.9,16.8c0,9.3,7.6,16.9,16.9,16.9s16.9-7.6,16.9-16.9c0-0.4,0-0.9-0.1-1.3c-0.1-0.8,0.2-1.5,0.8-2
				s1.3-0.8,2.1-0.7c1,0.1,2,0.2,3,0.2c8.1,0,15.5-4,19.9-10.8c0.4-0.6,1.1-1,1.8-1.1c0.7-0.1,1.5,0.2,2,0.7c2,1.9,4.7,3,7.6,3
				c6,0,11-4.9,11-11c0-6-4.9-11-11-11c-1.7,0-3.4,0.4-4.9,1.2c-0.7,0.3-1.4,0.4-2.1,0.1c-0.7-0.3-1.2-0.9-1.4-1.6
				C88.8,51.4,79.4,44.4,68.9,44.4z"/>
		</g>
		<g>
			<circle class="st2" cx="113.7" cy="35.2" r="19.2"/>
			<path class="st3" d="M113.7,56.9c-12,0-21.7-9.7-21.7-21.7c0-12,9.7-21.7,21.7-21.7s21.7,9.7,21.7,21.7
				C135.4,47.1,125.7,56.9,113.7,56.9z M113.7,18.5C104.5,18.5,97,26,97,35.2s7.5,16.7,16.7,16.7s16.7-7.5,16.7-16.7
				S122.9,18.5,113.7,18.5z"/>
		</g>
		<g>
			<path class="st3" d="M181,92.8c-13.4,0-24.3-10.9-24.3-24.3s10.9-24.3,24.3-24.3c13.4,0,24.3,10.9,24.3,24.3S194.4,92.8,181,92.8
				z M181,49.2c-10.7,0-19.3,8.7-19.3,19.3s8.7,19.3,19.3,19.3c10.7,0,19.3-8.7,19.3-19.3S191.7,49.2,181,49.2z"/>
		</g>
		<g>
			<path class="st3" d="M152.7,118.9c-8.9,0-16.2-7.3-16.2-16.2s7.3-16.2,16.2-16.2s16.2,7.3,16.2,16.2S161.6,118.9,152.7,118.9z
				 M152.7,91.6c-6.2,0-11.2,5-11.2,11.2s5,11.2,11.2,11.2s11.2-5,11.2-11.2S158.8,91.6,152.7,91.6z"/>
		</g>
		<g>
			<path class="st3" d="M12.5,96.1C5.6,96.1,0,90.5,0,83.6c0-6.9,5.6-12.5,12.5-12.5c6.9,0,12.5,5.6,12.5,12.5
				C25,90.5,19.4,96.1,12.5,96.1z M12.5,76.1c-4.1,0-7.5,3.4-7.5,7.5c0,4.1,3.4,7.5,7.5,7.5c4.1,0,7.5-3.4,7.5-7.5
				C20,79.4,16.7,76.1,12.5,76.1z"/>
		</g>
	</g>
</g>
</svg>
